<svg width="20" height="20" viewBox="0 0 20 20" fill="none" xmlns="http://www.w3.org/2000/svg">
<path d="M10 3.44062C12.1375 3.44062 12.3906 3.45 13.2313 3.4875C14.0125 3.52187 14.4344 3.65313 14.7156 3.7625C15.0875 3.90625 15.3563 4.08125 15.6344 4.35938C15.9156 4.64062 16.0875 4.90625 16.2313 5.27813C16.3406 5.55938 16.4719 5.98438 16.5063 6.7625C16.5438 7.60625 16.5531 7.85938 16.5531 9.99375C16.5531 12.1313 16.5438 12.3844 16.5063 13.225C16.4719 14.0063 16.3406 14.4281 16.2313 14.7094C16.0875 15.0813 15.9125 15.35 15.6344 15.6281C15.3531 15.9094 15.0875 16.0813 14.7156 16.225C14.4344 16.3344 14.0094 16.4656 13.2313 16.5C12.3875 16.5375 12.1344 16.5469 10 16.5469C7.8625 16.5469 7.60938 16.5375 6.76875 16.5C5.9875 16.4656 5.56563 16.3344 5.28438 16.225C4.9125 16.0813 4.64375 15.9063 4.36563 15.6281C4.08438 15.3469 3.9125 15.0813 3.76875 14.7094C3.65938 14.4281 3.52813 14.0031 3.49375 13.225C3.45625 12.3813 3.44688 12.1281 3.44688 9.99375C3.44688 7.85625 3.45625 7.60313 3.49375 6.7625C3.52813 5.98125 3.65938 5.55938 3.76875 5.27813C3.9125 4.90625 4.0875 4.6375 4.36563 4.35938C4.64688 4.07812 4.9125 3.90625 5.28438 3.7625C5.56563 3.65313 5.99063 3.52187 6.76875 3.4875C7.60938 3.45 7.8625 3.44062 10 3.44062ZM10 2C7.82813 2 7.55625 2.00937 6.70313 2.04688C5.85313 2.08438 5.26875 2.22187 4.7625 2.41875C4.23438 2.625 3.7875 2.89688 3.34375 3.34375C2.89688 3.7875 2.625 4.23438 2.41875 4.75938C2.22187 5.26875 2.08438 5.85 2.04688 6.7C2.00938 7.55625 2 7.82812 2 10C2 12.1719 2.00938 12.4438 2.04688 13.2969C2.08438 14.1469 2.22187 14.7313 2.41875 15.2375C2.625 15.7656 2.89688 16.2125 3.34375 16.6562C3.7875 17.1 4.23438 17.375 4.75938 17.5781C5.26875 17.775 5.85 17.9125 6.7 17.95C7.55313 17.9875 7.825 17.9969 9.99688 17.9969C12.1688 17.9969 12.4406 17.9875 13.2938 17.95C14.1438 17.9125 14.7281 17.775 15.2344 17.5781C15.7594 17.375 16.2063 17.1 16.65 16.6562C17.0938 16.2125 17.3688 15.7656 17.5719 15.2406C17.7688 14.7313 17.9063 14.15 17.9438 13.3C17.9813 12.4469 17.9906 12.175 17.9906 10.0031C17.9906 7.83125 17.9813 7.55938 17.9438 6.70625C17.9063 5.85625 17.7688 5.27188 17.5719 4.76562C17.375 4.23438 17.1031 3.7875 16.6563 3.34375C16.2125 2.9 15.7656 2.625 15.2406 2.42188C14.7313 2.225 14.15 2.0875 13.3 2.05C12.4438 2.00938 12.1719 2 10 2Z" fill="white"/>
<path d="M10 5.89062C7.73125 5.89062 5.89062 7.73125 5.89062 10C5.89062 12.2688 7.73125 14.1094 10 14.1094C12.2688 14.1094 14.1094 12.2688 14.1094 10C14.1094 7.73125 12.2688 5.89062 10 5.89062ZM10 12.6656C8.52813 12.6656 7.33437 11.4719 7.33437 10C7.33437 8.52813 8.52813 7.33437 10 7.33437C11.4719 7.33437 12.6656 8.52813 12.6656 10C12.6656 11.4719 11.4719 12.6656 10 12.6656Z" fill="white"/>
<path d="M15.2312 5.72793C15.2312 6.25918 14.8 6.68731 14.2719 6.68731C13.7406 6.68731 13.3125 6.25606 13.3125 5.72793C13.3125 5.19668 13.7438 4.76855 14.2719 4.76855C14.8 4.76855 15.2312 5.19981 15.2312 5.72793Z" fill="white"/>
</svg>
