<svg width="30" height="30" viewBox="0 0 30 30" fill="none" xmlns="http://www.w3.org/2000/svg">
<path fill-rule="evenodd" clip-rule="evenodd" d="M21.25 26.25H8.75C7.36875 26.25 6.25 25.1313 6.25 23.75V13.75C6.25 12.3687 7.36875 11.25 8.75 11.25H21.25C22.6313 11.25 23.75 12.3687 23.75 13.75V23.75C23.75 25.1313 22.6313 26.25 21.25 26.25Z" stroke="#7D7E81" stroke-width="1.875" stroke-linecap="round" stroke-linejoin="round"/>
<path d="M15 21.3625V18.125" stroke="#7D7E81" stroke-width="1.875" stroke-linecap="round" stroke-linejoin="round"/>
<path d="M15.6629 16.5246C16.029 16.8907 16.029 17.4843 15.6629 17.8504C15.2968 18.2165 14.7032 18.2165 14.3371 17.8504C13.971 17.4843 13.971 16.8907 14.3371 16.5246C14.7032 16.1585 15.2968 16.1585 15.6629 16.5246" stroke="#7D7E81" stroke-width="1.875" stroke-linecap="round" stroke-linejoin="round"/>
<path d="M10 11.25V8.75V8.75C10 5.98875 12.2387 3.75 15 3.75V3.75C17.7613 3.75 20 5.98875 20 8.75V8.75V11.25" stroke="#7D7E81" stroke-width="1.875" stroke-linecap="round" stroke-linejoin="round"/>
</svg>
