<svg width="292" height="60" viewBox="0 0 292 60" fill="none" xmlns="http://www.w3.org/2000/svg">
<path fill-rule="evenodd" clip-rule="evenodd" d="M128.736 18.9595C125.812 16.0371 122.169 14.5999 117.807 14.5999C113.492 14.5999 109.849 16.0371 106.877 18.9595C103.953 21.834 102.467 25.4272 102.467 29.691C102.467 33.9549 103.905 37.548 106.877 40.4225C109.801 43.297 113.492 44.7342 117.807 44.7342C122.121 44.7342 125.764 43.297 128.736 40.4225C131.661 37.548 133.147 33.9549 133.147 29.691C133.147 25.4272 131.709 21.834 128.736 18.9595ZM124.374 36.494C122.648 38.3145 120.491 39.2248 117.807 39.2248C115.218 39.2248 113.013 38.2666 111.239 36.494C109.466 34.6735 108.603 32.4218 108.603 29.691C108.603 26.9602 109.513 24.6606 111.239 22.888C113.013 21.0675 115.17 20.1093 117.807 20.1093C120.443 20.1093 122.6 21.0675 124.374 22.8401C126.148 24.6127 127.011 26.9123 127.011 29.691C127.011 32.4218 126.148 34.6735 124.374 36.494Z" fill="white"/>
<path fill-rule="evenodd" clip-rule="evenodd" d="M168.286 14.5999C171.689 14.5999 174.422 15.7497 176.579 18.0493C178.736 20.3489 179.791 23.3192 179.791 26.8644V44.2073H173.847V27.7747C173.847 25.523 173.223 23.7025 171.929 22.2652C170.683 20.78 169.101 20.0614 167.183 20.0614C165.266 20.0614 163.636 20.78 162.39 22.2652C161.143 23.7025 160.52 25.523 160.52 27.7747V44.2073H154.576V27.7747C154.576 25.523 153.953 23.7025 152.706 22.2652C151.46 20.78 149.878 20.0614 147.96 20.0614C146.043 20.0614 144.413 20.78 143.167 22.2652C141.92 23.7025 141.297 25.523 141.297 27.7747V44.2073H135.353V15.1748H141.297V19.0553C143.406 16.085 146.187 14.5999 149.686 14.5999C151.699 14.5999 153.473 15.0789 155.055 16.0371C156.637 16.9953 157.883 18.3367 158.842 20.0135C159.897 18.3367 161.191 17.0432 162.773 16.085C164.451 15.0789 166.272 14.5999 168.286 14.5999Z" fill="white"/>
<path fill-rule="evenodd" clip-rule="evenodd" d="M185.825 11.9652C186.88 11.9652 187.695 11.6298 188.414 10.9112C189.133 10.1926 189.468 9.33022 189.468 8.32415C189.468 7.27016 189.085 6.45572 188.414 5.73709C187.695 5.01847 186.832 4.68311 185.825 4.68311C184.77 4.68311 183.956 5.01847 183.189 5.73709C182.469 6.40781 182.134 7.31807 182.134 8.32415C182.134 9.37813 182.469 10.1926 183.189 10.9112C183.956 11.6298 184.866 11.9652 185.825 11.9652Z" fill="white"/>
<path d="M188.803 15.1284H182.859V44.113H188.803V15.1284Z" fill="white"/>
<path fill-rule="evenodd" clip-rule="evenodd" d="M207.503 14.5999C211.002 14.5999 213.879 15.7497 216.132 18.0493C218.385 20.3489 219.535 23.3192 219.535 26.8644V44.2073H213.591V27.7747C213.591 25.523 212.872 23.7025 211.386 22.2652C209.9 20.78 208.078 20.0614 205.825 20.0614C203.572 20.0614 201.75 20.78 200.216 22.2652C198.73 23.7025 198.011 25.523 198.011 27.7747V44.2073H192.067V15.1748H198.011V19.2949C200.312 16.1808 203.476 14.5999 207.503 14.5999Z" fill="white"/>
<path fill-rule="evenodd" clip-rule="evenodd" d="M225.515 11.9652C226.57 11.9652 227.385 11.6298 228.104 10.9112C228.823 10.1926 229.158 9.33022 229.158 8.32415C229.158 7.27016 228.775 6.45572 228.104 5.73709C227.385 5.01847 226.522 4.68311 225.515 4.68311C224.46 4.68311 223.645 5.01847 222.878 5.73709C222.159 6.40781 221.824 7.31807 221.824 8.32415C221.824 9.37813 222.159 10.1926 222.878 10.9112C223.645 11.6298 224.508 11.9652 225.515 11.9652Z" fill="white"/>
<path d="M228.442 15.1265H222.498V44.111H228.442V15.1265Z" fill="white"/>
<path fill-rule="evenodd" clip-rule="evenodd" d="M247.241 14.5537C250.74 14.5537 253.617 15.7035 255.87 18.0031C258.123 20.3027 259.273 23.273 259.273 26.8183V44.1611H253.329V27.7285C253.329 25.4768 252.61 23.6563 251.124 22.2191C249.638 20.7339 247.816 20.0153 245.563 20.0153C243.31 20.0153 241.488 20.7339 239.954 22.2191C238.468 23.6563 237.749 25.4768 237.749 27.7285V44.1611H231.805V15.1286H237.749V19.2487C240.002 16.1347 243.214 14.5537 247.241 14.5537Z" fill="white"/>
<path fill-rule="evenodd" clip-rule="evenodd" d="M285.924 15.1286V19.3925C283.431 16.1826 279.932 14.5537 275.665 14.5537C271.638 14.5537 268.235 15.991 265.454 18.8176C262.722 21.6442 261.38 25.1415 261.38 29.3095C261.38 33.5254 262.722 37.0228 265.454 39.8494C268.187 42.628 271.59 44.0653 275.665 44.0653C279.979 44.0653 283.383 42.4843 285.924 39.3224V41.0471C285.924 43.7778 285.013 46.0295 283.191 47.8501C281.418 49.6706 279.165 50.6287 276.48 50.6287C274.658 50.6287 272.981 50.1497 271.542 49.1436C270.152 48.1854 269.05 46.8919 268.283 45.2151L262.914 47.8501C264.112 50.3413 265.934 52.3534 268.283 53.8386C270.728 55.3238 273.46 56.0424 276.48 56.0424C280.842 56.0424 284.486 54.6051 287.41 51.7306C290.382 48.8561 291.82 45.263 291.82 40.9992V15.0807H285.924V15.1286ZM283.287 35.9688C281.513 37.7414 279.404 38.6037 276.72 38.6037C274.131 38.6037 271.926 37.6935 270.152 35.9688C268.379 34.1962 267.516 31.9924 267.516 29.3095C267.516 26.6266 268.427 24.4708 270.152 22.6981C271.926 20.9255 274.083 20.0632 276.72 20.0632C279.356 20.0632 281.561 20.9734 283.287 22.6981C285.061 24.4708 285.924 26.6266 285.924 29.3095C285.924 31.9924 285.061 34.2441 283.287 35.9688Z" fill="white"/>
<path fill-rule="evenodd" clip-rule="evenodd" d="M94.544 15.1286V19.3925C92.0512 16.1826 88.5518 14.5537 84.2854 14.5537C80.2586 14.5537 76.8551 15.991 74.0747 18.8176C71.3422 21.6442 70 25.1415 70 29.3095C70 33.5254 71.3422 37.0228 74.0747 39.8494C76.8071 42.628 80.2107 44.0653 84.2854 44.0653C88.5997 44.0653 92.0033 42.4843 94.544 39.3224V41.0471C94.544 43.7778 93.6332 46.0295 91.8115 47.8501C90.0379 49.6706 87.7848 50.6287 85.1003 50.6287C83.2787 50.6287 81.6008 50.1497 80.1627 49.1436C78.7725 48.1854 77.67 46.8919 76.903 45.2151L71.534 47.8501C72.7324 50.3413 74.554 52.3534 76.903 53.8386C79.3478 55.3238 82.0802 56.0424 85.1003 56.0424C89.4626 56.0424 93.1059 54.6051 96.03 51.7306C99.0022 48.8561 100.44 45.263 100.44 40.9992V15.0807H94.544V15.1286ZM91.9074 35.9688C90.1337 37.7414 88.0245 38.6037 85.34 38.6037C82.7514 38.6037 80.5462 37.6935 78.7725 35.9688C76.9989 34.1962 76.136 31.9924 76.136 29.3095C76.136 26.6266 77.0468 24.4708 78.7725 22.6981C80.5462 20.9255 82.7034 20.0632 85.34 20.0632C87.9765 20.0632 90.1816 20.9734 91.9074 22.6981C93.6811 24.4708 94.544 26.6266 94.544 29.3095C94.544 31.9924 93.6811 34.2441 91.9074 35.9688Z" fill="white"/>
<ellipse cx="29.7945" cy="29.7945" rx="29.7945" ry="29.7945" fill="#7540EF"/>
<ellipse cx="29.7945" cy="29.7945" rx="29.7945" ry="29.7945" fill="#7540EF"/>
<path d="M30.4708 8.99976C27.38 8.99976 24.251 9.64869 21.2365 11.0611C16.0469 13.4659 12.1166 17.7412 10.2087 23.0853C8.33891 28.3531 8.64418 34.0026 11.0863 39.0413C16.1614 49.5005 28.9827 53.9285 39.667 48.9661C42.3763 47.7064 44.7803 45.9123 46.7645 43.6984C48.7106 41.4844 50.1224 38.9268 51.0001 36.1402L46.4974 30.0327L50.8856 24.0396H44.7039L40.3157 29.9563L44.8566 36.0257L44.8184 36.1021C41.3842 43.8129 32.1116 47.3629 24.2128 43.9656C20.3588 42.286 17.3825 39.2322 15.8943 35.3768C14.4443 31.5977 14.5206 27.5133 16.1614 23.8106C19.5957 16.0998 28.83 12.5498 36.767 15.9471C39.2473 17.0159 41.3842 18.6573 42.9868 20.7568H49.779C46.0776 13.3514 38.4459 8.99976 30.4708 8.99976Z" fill="white"/>
<path d="M40.8911 23.9985H34.7476L30.2831 29.9534L34.7476 35.8701H40.8911L36.5792 29.9534L40.8911 23.9985Z" fill="white"/>
</svg>
