<svg width="24" height="24" viewBox="0 0 24 24" fill="none" xmlns="http://www.w3.org/2000/svg">
<path fill-rule="evenodd" clip-rule="evenodd" d="M7.73124 20.8328C7.22417 21.0975 6.61072 21.0509 6.14946 20.7126C5.68819 20.3744 5.45933 19.8033 5.55933 19.2401L6.36867 14.6012L2.96125 11.3358C2.54475 10.9386 2.39211 10.3382 2.56835 9.79034C2.74458 9.24246 3.21864 8.84364 3.7886 8.76375L8.51957 8.08747L10.6555 3.8267C10.9087 3.31571 11.4297 2.99243 12 2.99243C12.5703 2.99243 13.0913 3.31571 13.3446 3.8267L15.4805 8.08747L20.2114 8.76375C20.7814 8.84364 21.2555 9.24246 21.4317 9.79034C21.6079 10.3382 21.4553 10.9386 21.0388 11.3358L17.6314 14.6012L18.4407 19.2411C18.5407 19.8043 18.3118 20.3754 17.8506 20.7136C17.3893 21.0519 16.7759 21.0985 16.2688 20.8338L12 18.6279L7.73124 20.8328Z" stroke="#7540EF" stroke-width="2" stroke-linecap="round" stroke-linejoin="round"/>
</svg>
