<svg width="30" height="30" viewBox="0 0 30 30" fill="none" xmlns="http://www.w3.org/2000/svg">
<path d="M23.8387 6.16118C28.7199 11.0424 28.7199 18.9574 23.8387 23.8387C18.9574 28.7199 11.0424 28.7199 6.16118 23.8387C1.27993 18.9574 1.27993 11.0424 6.16118 6.16118C11.0424 1.27993 18.9574 1.27993 23.8387 6.16118" stroke="#7D7E81" stroke-width="1.875" stroke-linecap="round" stroke-linejoin="round"/>
<path d="M6.875 15H23.125" stroke="#7D7E81" stroke-width="1.875" stroke-linecap="round" stroke-linejoin="round"/>
<path fill-rule="evenodd" clip-rule="evenodd" d="M15 23.125C19.4873 23.125 23.125 19.4873 23.125 15C23.125 10.5127 19.4873 6.875 15 6.875C10.5127 6.875 6.875 10.5127 6.875 15C6.875 19.4873 10.5127 23.125 15 23.125Z" stroke="#7D7E81" stroke-width="1.875" stroke-linecap="round" stroke-linejoin="round"/>
<path fill-rule="evenodd" clip-rule="evenodd" d="M15 23.125C16.9848 23.125 18.5938 19.4873 18.5938 15C18.5938 10.5127 16.9848 6.875 15 6.875C13.0152 6.875 11.4062 10.5127 11.4062 15C11.4062 19.4873 13.0152 23.125 15 23.125Z" stroke="#7D7E81" stroke-width="1.875" stroke-linecap="round" stroke-linejoin="round"/>
</svg>
